PathFileType	4	(X/Y/Z)	/home/nbianco/projects/addbio/data/HamnerRunning2013/Processed/subject20//results/MarkerData/run400.trc
DataRate	CameraRate	NumFrames	NumMarkers	Units	OrigDataRate	OrigDataStartFrame	OrigNumFrames
119.99	119.99	9	42	m	119.99	0	232
Frame#	Time	C7			CLAV			LACR			LASI			LCAL			LFAradius			LFAsuperior			LFAulna			LLEL			LMEL			LMT5			LPSI			LTB1			LTB2			LTB3			LTH1			LTH2			LTH3			LTOE			LUA1			LUA2			LUA3			RACR			RASI			RCAL			RFAradius			RFAsuperior			RFAulna			RLEL			RMEL			RMT5			RPSI			RTB1			RTB2			RTB3			RTH1			RTH2			RTH3			RTOE			RUA1			RUA2			RUA3		
		X1	Y1	Z1	X2	Y2	Z2	X3	Y3	Z3	X4	Y4	Z4	X5	Y5	Z5	X6	Y6	Z6	X7	Y7	Z7	X8	Y8	Z8	X9	Y9	Z9	X10	Y10	Z10	X11	Y11	Z11	X12	Y12	Z12	X13	Y13	Z13	X14	Y14	Z14	X15	Y15	Z15	X16	Y16	Z16	X17	Y17	Z17	X18	Y18	Z18	X19	Y19	Z19	X20	Y20	Z20	X21	Y21	Z21	X22	Y22	Z22	X23	Y23	Z23	X24	Y24	Z24	X25	Y25	Z25	X26	Y26	Z26	X27	Y27	Z27	X28	Y28	Z28	X29	Y29	Z29	X30	Y30	Z30	X31	Y31	Z31	X32	Y32	Z32	X33	Y33	Z33	X34	Y34	Z34	X35	Y35	Z35	X36	Y36	Z36	X37	Y37	Z37	X38	Y38	Z38	X39	Y39	Z39	X40	Y40	Z40	X41	Y41	Z41	X42	Y42	Z42

1	0.083333	0.707518	1.52807	-0.36472	0.817773	1.43757	-0.299615	0.787994	1.47764	-0.529881	0.764982	1.02487	-0.498885	0.153817	0.538594	-0.452468	0.881234	1.20439	-0.534032	0.810297	1.24699	-0.695625	0.887222	1.15071	-0.571489	0.750816	1.25839	-0.734895	0.675738	1.21647	-0.699773	0.0898346	0.34126	-0.49044	0.59757	1.0621	-0.421025	0.464616	0.456942	-0.466958	0.350208	0.478747	-0.514125	0.272813	0.446333	-0.444763	0.694013	0.874741	-0.545065	0.708596	0.751411	-0.533636	0.601683	0.640456	-0.534569	0.136375	0.327384	-0.409422	0.772321	1.42696	-0.601298	0.704647	1.3792	-0.628537	0.768577	1.35014	-0.664073	0.69123	1.47832	-0.178672	0.745613	1.03738	-0.259432	0.880038	0.103262	-0.33019	0.677938	1.13338	-0.023427	0.550941	1.24871	-0.0124196	0.619729	1.09563	-0.0234194	0.491906	1.30332	-0.0328759	0.459661	1.28236	-0.111764	1.06836	0.111889	-0.239902	0.59128	1.05928	-0.333017	0.953869	0.443169	-0.295712	0.921388	0.37178	-0.244609	0.962938	0.264534	-0.313744	0.762725	0.852571	-0.202202	0.861407	0.762072	-0.234749	0.83819	0.621367	-0.241061	1.09603	0.148437	-0.327548	0.625246	1.41801	-0.108164	0.614872	1.34888	-0.0914681	0.513442	1.37823	-0.0914591
2	0.091667	0.707391	1.52306	-0.362832	0.8179	1.432	-0.298737	0.786338	1.47255	-0.52904	0.766324	1.02071	-0.496908	0.168718	0.563038	-0.449493	0.874566	1.19483	-0.536217	0.801803	1.24089	-0.696123	0.877827	1.1413	-0.573706	0.741906	1.25481	-0.734116	0.666887	1.21457	-0.697922	0.0939701	0.371104	-0.493897	0.597601	1.0553	-0.421007	0.472778	0.456899	-0.467903	0.359995	0.489025	-0.51365	0.281122	0.461725	-0.444506	0.698258	0.869515	-0.543774	0.714836	0.74637	-0.532266	0.611545	0.634038	-0.535211	0.139267	0.351727	-0.413334	0.768363	1.42235	-0.600335	0.698825	1.37537	-0.625815	0.762097	1.34653	-0.66348	0.691984	1.47157	-0.176537	0.744546	1.03277	-0.259003	0.873024	0.0977514	-0.331272	0.686402	1.12873	-0.0187006	0.557141	1.24158	-0.00720394	0.628789	1.09006	-0.0170336	0.496723	1.29458	-0.0272097	0.463224	1.27227	-0.10531	1.06157	0.104028	-0.242661	0.589621	1.0525	-0.332591	0.94896	0.43689	-0.296875	0.916044	0.365683	-0.245515	0.957242	0.25796	-0.314817	0.760221	0.847349	-0.202041	0.861043	0.759824	-0.23463	0.836232	0.616643	-0.241868	1.08946	0.139878	-0.331222	0.627261	1.41029	-0.104924	0.618161	1.34142	-0.0876374	0.51631	1.36909	-0.086374
3	0.1	0.707374	1.51743	-0.360959	0.818052	1.42586	-0.298079	0.784441	1.46667	-0.528253	0.767517	1.01579	-0.495253	0.185833	0.585147	-0.446663	0.867806	1.18418	-0.538862	0.792778	1.23442	-0.69645	0.8684	1.13109	-0.576846	0.732611	1.25069	-0.733182	0.657731	1.21204	-0.695781	0.102315	0.398774	-0.497744	0.597698	1.04768	-0.421377	0.482086	0.456491	-0.46853	0.371822	0.498027	-0.513302	0.291707	0.475858	-0.444144	0.702371	0.863705	-0.542516	0.722409	0.740633	-0.530576	0.622655	0.626762	-0.535969	0.145388	0.374355	-0.417652	0.764116	1.41699	-0.599379	0.692858	1.37075	-0.623009	0.755303	1.34201	-0.662639	0.692621	1.46409	-0.174414	0.743365	1.0276	-0.257705	0.861589	0.094671	-0.333028	0.695581	1.12326	-0.0143107	0.563973	1.23325	-0.00170206	0.638813	1.0835	-0.0106966	0.502047	1.28454	-0.0211857	0.467388	1.26079	-0.0984892	1.0501	0.094146	-0.246331	0.588359	1.04515	-0.332785	0.943291	0.429155	-0.298663	0.910396	0.3584	-0.247049	0.949513	0.250038	-0.316752	0.758643	0.842314	-0.203126	0.861137	0.756674	-0.235721	0.833698	0.610982	-0.242509	1.07862	0.127058	-0.335875	0.629379	1.40156	-0.10172	0.62175	1.3329	-0.0837523	0.519461	1.35866	-0.0809744
4	0.108333	0.707426	1.51113	-0.359064	0.818268	1.41915	-0.29769	0.782369	1.46007	-0.527491	0.768557	1.01015	-0.494199	0.204984	0.60475	-0.444186	0.860956	1.17257	-0.541984	0.783335	1.22771	-0.696603	0.858947	1.12016	-0.580892	0.723024	1.24612	-0.732097	0.648341	1.20895	-0.693377	0.114539	0.423855	-0.501818	0.597808	1.03921	-0.422067	0.49263	0.455741	-0.468756	0.3856	0.505463	-0.51309	0.304465	0.488493	-0.4438	0.706478	0.857143	-0.541224	0.731261	0.734282	-0.528703	0.634802	0.618723	-0.536774	0.154502	0.395004	-0.422228	0.759693	1.41093	-0.59839	0.686898	1.36548	-0.620107	0.748327	1.33657	-0.661553	0.693163	1.45604	-0.172311	0.742087	1.02186	-0.255599	0.845098	0.0940707	-0.335256	0.705417	1.11699	-0.0103944	0.571418	1.22378	0.00403258	0.649753	1.07604	-0.00459695	0.507868	1.27329	-0.014894	0.472269	1.24802	-0.0914526	1.03344	0.0833809	-0.250437	0.587489	1.03706	-0.33356	0.936981	0.420133	-0.301359	0.904295	0.349935	-0.249691	0.939319	0.240909	-0.319906	0.757888	0.837169	-0.205125	0.860744	0.751637	-0.237844	0.830412	0.604332	-0.243078	1.06285	0.110874	-0.340933	0.631662	1.39188	-0.0986301	0.625674	1.32343	-0.0798719	0.522926	1.34702	-0.0753912
5	0.116667	0.707425	1.50413	-0.357146	0.818692	1.41179	-0.297549	0.780248	1.45292	-0.526759	0.769423	1.00384	-0.493699	0.225967	0.621643	-0.442279	0.854026	1.16023	-0.545604	0.773626	1.22089	-0.696572	0.849429	1.1086	-0.585703	0.713259	1.24127	-0.730863	0.638849	1.2054	-0.690762	0.130166	0.445858	-0.505932	0.597667	1.02977	-0.422976	0.504589	0.454616	-0.468535	0.401124	0.510985	-0.51299	0.319261	0.499337	-0.443606	0.710815	0.849656	-0.539766	0.740957	0.727501	-0.526896	0.647534	0.610079	-0.53751	0.166394	0.413357	-0.426751	0.755201	1.40426	-0.597336	0.681097	1.35972	-0.617088	0.741318	1.33025	-0.660251	0.693691	1.44764	-0.170214	0.740745	1.01551	-0.253011	0.822929	0.0952846	-0.337588	0.715901	1.11001	-0.00702451	0.579469	1.21322	0.00990526	0.661552	1.06779	0.00102241	0.514208	1.26101	-0.00847117	0.478118	1.2341	-0.0844181	1.01115	0.0738558	-0.254119	0.5867	1.02793	-0.334805	0.930048	0.410483	-0.30529	0.897168	0.340812	-0.253856	0.925768	0.231254	-0.324594	0.757361	0.831521	-0.207139	0.859008	0.744378	-0.24016	0.826665	0.597135	-0.243704	1.04149	0.0941043	-0.345471	0.634235	1.38127	-0.0957233	0.630004	1.31315	-0.0760855	0.526791	1.33432	-0.0697763
6	0.125	0.70723	1.49651	-0.355269	0.819548	1.40365	-0.297542	0.778186	1.44544	-0.52613	0.770042	0.996903	-0.493134	0.248589	0.63569	-0.441082	0.846999	1.14747	-0.549712	0.763749	1.21393	-0.696376	0.839749	1.09658	-0.591038	0.703382	1.23627	-0.729458	0.629395	1.20147	-0.687974	0.148748	0.464414	-0.509926	0.596847	1.01935	-0.42405	0.518197	0.453098	-0.46791	0.418148	0.514455	-0.51297	0.335991	0.508242	-0.443583	0.715598	0.841351	-0.538064	0.750712	0.720606	-0.525399	0.66032	0.600998	-0.53798	0.181003	0.429174	-0.430808	0.750648	1.39712	-0.596238	0.675484	1.3536	-0.613917	0.734358	1.32322	-0.658767	0.694328	1.43914	-0.168057	0.739362	1.00862	-0.25044	0.795445	0.0970879	-0.339672	0.727131	1.10248	-0.00409539	0.5882	1.20167	0.0157417	0.674198	1.05888	0.00600989	0.521176	1.24786	-0.00206838	0.485211	1.21916	-0.0775456	0.983621	0.0674419	-0.256708	0.585391	1.01782	-0.336426	0.922203	0.401308	-0.310464	0.88826	0.332285	-0.259186	0.908238	0.222405	-0.330464	0.756086	0.825289	-0.208168	0.856083	0.736199	-0.241523	0.823321	0.590435	-0.244394	1.01475	0.0804145	-0.348819	0.637237	1.36978	-0.0929897	0.634833	1.30212	-0.0725113	0.531219	1.32067	-0.0641865
7	0.133333	0.706809	1.48866	-0.353484	0.82097	1.39478	-0.297578	0.77617	1.43796	-0.525709	0.770259	0.989428	-0.491763	0.272522	0.646852	-0.440735	0.839813	1.13462	-0.554228	0.753727	1.20667	-0.696081	0.829789	1.08431	-0.596637	0.693415	1.23127	-0.727826	0.620085	1.19728	-0.684989	0.169841	0.479192	-0.513645	0.595031	1.00849	-0.425319	0.53371	0.451311	-0.466972	0.436479	0.51603	-0.513035	0.35457	0.515226	-0.443654	0.720857	0.832782	-0.536197	0.75975	0.714075	-0.524359	0.672773	0.591723	-0.537872	0.198307	0.442234	-0.434021	0.745956	1.38978	-0.595169	0.669983	1.34725	-0.61054	0.727459	1.31588	-0.657141	0.695187	1.43074	-0.16573	0.737904	1.00141	-0.248214	0.764257	0.0985541	-0.341323	0.739238	1.09466	-0.00147323	0.597848	1.18935	0.0212046	0.687726	1.04957	0.0103171	0.529019	1.23404	0.00413561	0.493665	1.20338	-0.0708865	0.952303	0.0645908	-0.25815	0.583049	1.00755	-0.338399	0.912954	0.393672	-0.316275	0.877124	0.325841	-0.264454	0.887157	0.215789	-0.336328	0.753308	0.818903	-0.20784	0.852851	0.729197	-0.241425	0.821065	0.585249	-0.244983	0.984031	0.0720816	-0.35087	0.640731	1.35763	-0.0903721	0.640258	1.29042	-0.0693167	0.536418	1.30625	-0.0585934
8	0.141667	0.706315	1.48124	-0.351703	0.822827	1.38558	-0.297678	0.774001	1.43088	-0.525555	0.769866	0.981617	-0.48937	0.297143	0.655205	-0.44141	0.832371	1.12194	-0.558989	0.743573	1.19902	-0.695774	0.819451	1.07213	-0.602263	0.683386	1.22644	-0.725883	0.610972	1.19307	-0.681712	0.192951	0.489824	-0.516926	0.592286	0.99842	-0.426864	0.551309	0.449538	-0.465803	0.456053	0.516112	-0.513226	0.374866	0.520386	-0.443743	0.726332	0.824859	-0.534372	0.767694	0.708509	-0.523784	0.684868	0.58271	-0.536871	0.218158	0.452261	-0.436195	0.741039	1.38267	-0.594193	0.664485	1.34082	-0.606874	0.720576	1.30885	-0.655393	0.696306	1.42273	-0.163148	0.736249	0.994224	-0.246247	0.731528	0.0995316	-0.34255	0.752279	1.08691	0.000749964	0.608776	1.17679	0.0257762	0.702171	1.04021	0.0138951	0.538088	1.21987	0.00991122	0.503352	1.18712	-0.0644274	0.919136	0.0642205	-0.258894	0.579675	0.998615	-0.340688	0.901918	0.38797	-0.321532	0.863759	0.322238	-0.268246	0.863908	0.212019	-0.340775	0.749021	0.81313	-0.206633	0.84991	0.724635	-0.240464	0.819492	0.581765	-0.245304	0.951336	0.068665	-0.351933	0.644663	1.34534	-0.0878521	0.646354	1.27827	-0.0667011	0.542553	1.29142	-0.0530261
9	0.15	0.706024	1.47497	-0.349687	0.824724	1.37681	-0.297947	0.77136	1.42467	-0.525613	0.768697	0.97393	-0.48651	0.321554	0.660926	-0.443241	0.824588	1.10964	-0.563765	0.733367	1.19122	-0.695469	0.808676	1.06042	-0.60769	0.673378	1.22203	-0.723557	0.602074	1.18924	-0.678046	0.217567	0.495964	-0.519633	0.589085	0.990672	-0.428715	0.570959	0.448086	-0.464416	0.476948	0.515216	-0.513563	0.396637	0.523809	-0.443843	0.731514	0.818506	-0.532796	0.774721	0.70446	-0.523541	0.697077	0.574701	-0.534952	0.240229	0.458961	-0.437363	0.735865	1.37635	-0.59331	0.658923	1.33464	-0.602826	0.713602	1.3029	-0.653521	0.69766	1.41536	-0.160333	0.734193	0.987509	-0.244143	0.69889	0.100358	-0.343458	0.766217	1.0796	0.00216866	0.621286	1.16476	0.0288976	0.717511	1.03134	0.0165539	0.54869	1.20586	0.0149811	0.513989	1.17093	-0.0582121	0.8857	0.0646621	-0.259423	0.575843	0.992488	-0.343115	0.888982	0.383618	-0.324961	0.848285	0.320832	-0.269877	0.839821	0.210378	-0.343109	0.743883	0.808602	-0.205405	0.846868	0.721986	-0.239726	0.816914	0.579107	-0.245387	0.918323	0.0678359	-0.352445	0.648884	1.33369	-0.0855079	0.653122	1.2663	-0.0648209	0.54961	1.27674	-0.0477657
